<svg xmlns="http://www.w3.org/2000/svg" xmlns:xlink="http://www.w3.org/1999/xlink" viewBox="0 0 1720.63 1241.99"><defs><style>.cls-1{isolation:isolate;}.cls-2{mix-blend-mode:multiply;}.cls-3{fill:#fff;}.cls-4{fill:#fefefe;}.cls-5{fill:#fdfdfd;}.cls-6{fill:#fcfcfd;}.cls-7{fill:#fbfbfc;}.cls-8{fill:#fafbfb;}.cls-9{fill:#f9fafa;}.cls-10{fill:#f8f9f9;}.cls-11{fill:#f7f8f8;}.cls-12{fill:#f6f7f8;}.cls-13{fill:#f5f6f7;}.cls-14{fill:#f4f5f6;}.cls-15{fill:#f3f4f5;}.cls-16{fill:#f2f4f4;}.cls-17{fill:#f1f3f4;}.cls-18{fill:#f0f2f3;}.cls-19{fill:#eff1f2;}.cls-20{fill:#eff0f1;}.cls-21{fill:#eeeff0;}.cls-22{fill:#edeeef;}.cls-23{fill:#ecedef;}.cls-24{fill:#ebedee;}.cls-25{fill:#eaeced;}.cls-26{fill:#e9ebec;}.cls-27{fill:#e8eaeb;}.cls-28{fill:#e7e9eb;}.cls-29{fill:#e6e8ea;}.cls-30{fill:#e5e7e9;}.cls-31{fill:#e4e6e8;}.cls-32{fill:#e3e6e7;}.cls-33{fill:#e2e5e6;}.cls-34{fill:#e1e4e6;}.cls-35{fill:#e0e3e5;}.cls-36{fill:#dfe2e4;}.cls-37{fill:url(#Degradado_sin_nombre_176);}.cls-38{fill:#2196f3;}</style><linearGradient id="Degradado_sin_nombre_176" x1="1486.25" y1="1701.94" x2="2624.45" y2="2692.48" gradientUnits="userSpaceOnUse"><stop offset="0" stop-color="#e7e9eb"/><stop offset="0.03" stop-color="#e9ebed"/><stop offset="0.28" stop-color="#f9fafa"/><stop offset="0.48" stop-color="#fff"/><stop offset="0.69" stop-color="#fafafa"/><stop offset="0.92" stop-color="#ececec"/><stop offset="1" stop-color="#e6e6e6"/></linearGradient></defs><title>logo</title><g class="cls-1"><g id="Camada_1" data-name="Camada 1"><g class="cls-2"><path class="cls-3" d="M2305.52,2629.51c-58.6,78.42-151.86,129.93-249.45,137.75s-198-22-273.54-84.21c-36.48-30-84-87.92-84-87.92s-100.89,13-152.06,8.52c-98.71-8.58-143.78-81.55-156.26-149.1-13-70.22,4.34-148.46,60.93-192s141.3-46.86,200.4-6.77c-71.46-64.55-83.38-184.8-26-262.13s175.94-100.75,258.42-51c17.94-117.06,125.82-213.81,244.14-219s234.19,81.87,262.23,196.93c72.68-29.13,159.84-18.84,223.74,26.43s102.52,124.08,99.14,202.31c69.26-26.77,154.1-6.43,203.7,48.84s60.67,141.8,26.59,207.77-111.06,107-184.83,98.56c8.3,109.64-69.14,219.74-175.13,249S2354.62,2727.9,2305.52,2629.51Z" transform="translate(-1242.55 -1526.51)"/><path class="cls-4" d="M2301.42,2623.92c-58.6,78.42-151.86,129.93-249.45,137.75s-198-22-273.54-84.21c-36.48-30-84-87.92-84-87.92s-100.89,13-152.06,8.52c-98.71-8.58-143.78-81.55-156.26-149.1-13-70.22,4.34-148.46,60.93-192s141.3-46.86,200.4-6.77c-71.46-64.55-83.38-184.8-26-262.13s175.94-100.75,258.42-51c17.94-117.06,125.82-213.81,244.14-219s234.19,81.87,262.23,196.93c72.68-29.13,159.84-18.84,223.74,26.43s102.52,124.08,99.14,202.31c69.26-26.77,154.1-6.43,203.7,48.84s60.67,141.8,26.59,207.77-111.06,107-184.83,98.56c8.3,109.64-69.14,219.74-175.13,249S2350.52,2722.3,2301.42,2623.92Z" transform="translate(-1242.55 -1526.51)"/><path class="cls-5" d="M2297.32,2618.32c-58.6,78.42-151.86,129.93-249.45,137.75s-198-22-273.54-84.21c-36.48-30-84-87.92-84-87.92s-100.89,13-152.06,8.52c-98.71-8.58-143.78-81.55-156.26-149.1-13-70.22,4.34-148.46,60.93-192s141.3-46.86,200.4-6.77c-71.46-64.55-83.38-184.8-26-262.13s175.94-100.75,258.42-51c17.94-117.06,125.82-213.81,244.14-219s234.19,81.87,262.23,196.93c72.68-29.13,159.84-18.84,223.74,26.43s102.52,124.08,99.14,202.31c69.26-26.77,154.1-6.43,203.7,48.84s60.67,141.8,26.59,207.77-111.06,107-184.83,98.56c8.3,109.64-69.14,219.74-175.13,249S2346.42,2716.71,2297.32,2618.32Z" transform="translate(-1242.55 -1526.51)"/><path class="cls-6" d="M2293.21,2612.73c-58.6,78.42-151.86,129.93-249.45,137.75s-198-22-273.54-84.21c-36.48-30-84-87.92-84-87.92s-100.89,13-152.06,8.52c-98.71-8.58-143.78-81.55-156.26-149.1-13-70.22,4.34-148.46,60.93-192s141.3-46.86,200.4-6.77c-71.46-64.55-83.38-184.8-26-262.13s175.94-100.75,258.42-51c17.94-117.06,125.82-213.81,244.14-219S2350,1788.72,2378,1903.78c72.68-29.13,159.84-18.84,223.74,26.43s102.52,124.08,99.14,202.31c69.26-26.77,154.1-6.43,203.7,48.84s60.67,141.8,26.59,207.77-111.06,107-184.83,98.56c8.3,109.64-69.14,219.74-175.13,249S2342.31,2711.11,2293.21,2612.73Z" transform="translate(-1242.55 -1526.51)"/><path class="cls-7" d="M2289.11,2607.14c-58.6,78.42-151.86,129.93-249.45,137.75s-198-22-273.54-84.21c-36.48-30-84-87.92-84-87.92s-100.89,13-152.06,8.52c-98.71-8.58-143.78-81.55-156.26-149.1-13-70.22,4.34-148.46,60.93-192s141.3-46.86,200.4-6.77c-71.46-64.55-83.38-184.8-26-262.13s175.94-100.75,258.42-51c17.94-117.06,125.82-213.81,244.14-219s234.19,81.87,262.23,196.93c72.68-29.13,159.84-18.84,223.74,26.43s102.52,124.08,99.14,202.31c69.26-26.77,154.1-6.43,203.7,48.84s60.67,141.8,26.59,207.77-111.06,107-184.83,98.56c8.3,109.64-69.14,219.74-175.13,249S2338.21,2705.52,2289.11,2607.14Z" transform="translate(-1242.55 -1526.51)"/><path class="cls-8" d="M2285,2601.54c-58.6,78.42-151.86,129.93-249.45,137.75s-198-22-273.54-84.21c-36.48-30-84-87.92-84-87.92s-100.89,13-152.06,8.52c-98.71-8.58-143.78-81.55-156.26-149.1-13-70.22,4.34-148.46,60.93-192s141.3-46.86,200.4-6.77c-71.46-64.55-83.38-184.8-26-262.13s175.94-100.75,258.42-51c17.94-117.06,125.82-213.81,244.14-219s234.19,81.87,262.23,196.93c72.68-29.13,159.84-18.84,223.74,26.43s102.52,124.08,99.14,202.31c69.26-26.77,154.1-6.43,203.7,48.84s60.67,141.8,26.59,207.77-111.06,107-184.83,98.56c8.3,109.64-69.14,219.74-175.13,249S2334.11,2699.93,2285,2601.54Z" transform="translate(-1242.55 -1526.51)"/><path class="cls-9" d="M2280.91,2595.95c-58.6,78.42-151.86,129.93-249.45,137.75s-198-22-273.54-84.21c-36.48-30-84-87.92-84-87.92s-100.89,13-152.06,8.52c-98.71-8.58-143.78-81.55-156.26-149.1-13-70.22,4.34-148.46,60.93-192s141.3-46.86,200.4-6.77c-71.46-64.55-83.38-184.8-26-262.13s175.94-100.75,258.42-51c17.94-117.06,125.82-213.81,244.14-219s234.19,81.87,262.23,196.93c72.68-29.13,159.84-18.84,223.74,26.43s102.52,124.08,99.14,202.31c69.26-26.77,154.1-6.43,203.7,48.84s60.67,141.8,26.59,207.77-111.06,107-184.83,98.56c8.3,109.64-69.14,219.74-175.13,249S2330,2694.33,2280.91,2595.95Z" transform="translate(-1242.55 -1526.51)"/><path class="cls-10" d="M2276.81,2590.35c-58.6,78.42-151.86,129.93-249.45,137.75s-198-22-273.54-84.21c-36.48-30-84-87.92-84-87.92s-100.89,13-152.06,8.52c-98.71-8.58-143.78-81.55-156.26-149.1-13-70.22,4.34-148.46,60.93-192s141.3-46.86,200.4-6.77c-71.46-64.55-83.38-184.8-26-262.13s175.94-100.75,258.42-51c17.94-117.06,125.82-213.81,244.14-219s234.19,81.87,262.23,196.93c72.68-29.13,159.84-18.84,223.74,26.43s102.52,124.08,99.14,202.31c69.26-26.77,154.1-6.43,203.7,48.84s60.67,141.8,26.59,207.77-111.06,107-184.83,98.56c8.3,109.64-69.14,219.74-175.13,249S2325.9,2688.74,2276.81,2590.35Z" transform="translate(-1242.55 -1526.51)"/><path class="cls-11" d="M2272.7,2584.76c-58.6,78.42-151.86,129.93-249.45,137.75s-198-22-273.54-84.21c-36.48-30-84-87.92-84-87.92s-100.89,13-152.06,8.52c-98.71-8.58-143.78-81.55-156.26-149.1-13-70.22,4.34-148.46,60.93-192s141.3-46.86,200.4-6.77c-71.46-64.55-83.38-184.8-26-262.13s175.94-100.75,258.42-51c17.94-117.06,125.82-213.81,244.14-219s234.19,81.87,262.23,196.93c72.68-29.13,159.84-18.84,223.74,26.43s102.52,124.08,99.14,202.31c69.26-26.77,154.1-6.43,203.7,48.84s60.67,141.8,26.59,207.77-111.06,107-184.83,98.56c8.3,109.64-69.14,219.74-175.13,249S2321.8,2683.14,2272.7,2584.76Z" transform="translate(-1242.55 -1526.51)"/><path class="cls-12" d="M2268.6,2579.17c-58.6,78.42-151.86,129.93-249.45,137.75s-198-22-273.54-84.21c-36.48-30-84-87.92-84-87.92s-100.89,13-152.06,8.52c-98.71-8.58-143.78-81.55-156.26-149.1-13-70.22,4.34-148.46,60.93-192s141.3-46.86,200.4-6.77c-71.46-64.55-83.38-184.8-26-262.13s175.94-100.75,258.42-51c17.94-117.06,125.82-213.81,244.14-219s234.19,81.87,262.23,196.93c72.68-29.13,159.84-18.84,223.74,26.43s102.52,124.08,99.14,202.31c69.26-26.77,154.1-6.43,203.7,48.84s60.67,141.8,26.59,207.77-111.06,107-184.83,98.56c8.3,109.64-69.14,219.74-175.13,249S2317.7,2677.55,2268.6,2579.17Z" transform="translate(-1242.55 -1526.51)"/><path class="cls-13" d="M2264.5,2573.57c-58.6,78.42-151.86,129.93-249.45,137.75s-198-22-273.54-84.21c-36.48-30-84-87.92-84-87.92s-100.89,13-152.06,8.52c-98.71-8.58-143.78-81.55-156.26-149.1-13-70.22,4.34-148.46,60.93-192s141.3-46.86,200.4-6.77c-71.46-64.55-83.38-184.8-26-262.13s175.94-100.75,258.42-51c17.94-117.06,125.82-213.81,244.14-219s234.19,81.87,262.23,196.93c72.68-29.13,159.84-18.84,223.74,26.43s102.52,124.08,99.14,202.31c69.26-26.77,154.1-6.43,203.7,48.84s60.67,141.8,26.59,207.77-111.06,107-184.83,98.56c8.3,109.64-69.14,219.74-175.13,249S2313.6,2672,2264.5,2573.57Z" transform="translate(-1242.55 -1526.51)"/><path class="cls-14" d="M2260.4,2568c-58.6,78.42-151.86,129.93-249.45,137.75s-198-22-273.54-84.21c-36.48-30-84-87.92-84-87.92s-100.89,13-152.06,8.52c-98.71-8.58-143.78-81.55-156.26-149.1-13-70.22,4.34-148.46,60.93-192s141.3-46.86,200.4-6.77c-71.46-64.55-83.38-184.8-26-262.13s175.94-100.75,258.42-51c17.94-117.06,125.82-213.81,244.14-219S2317.17,1744,2345.21,1859c72.68-29.13,159.84-18.84,223.74,26.43s102.52,124.08,99.14,202.31c69.26-26.77,154.1-6.43,203.7,48.84s60.67,141.8,26.59,207.77-111.06,107-184.83,98.56c8.3,109.64-69.14,219.74-175.13,249S2309.49,2666.36,2260.4,2568Z" transform="translate(-1242.55 -1526.51)"/><path class="cls-15" d="M2256.29,2562.39c-58.6,78.42-151.86,129.93-249.45,137.75s-198-22-273.54-84.21c-36.48-30-84-87.92-84-87.92s-100.89,13-152.06,8.52c-98.71-8.58-143.78-81.55-156.26-149.1-13-70.22,4.34-148.46,60.93-192s141.3-46.86,200.4-6.77c-71.46-64.55-83.38-184.8-26-262.13s175.94-100.75,258.42-51c17.94-117.06,125.82-213.81,244.14-219s234.19,81.87,262.23,196.93c72.68-29.13,159.84-18.84,223.74,26.43s102.52,124.08,99.14,202.31c69.26-26.77,154.1-6.43,203.7,48.84s60.67,141.8,26.59,207.77-111.06,107-184.83,98.56c8.3,109.64-69.14,219.74-175.13,249S2305.39,2660.77,2256.29,2562.39Z" transform="translate(-1242.55 -1526.51)"/><path class="cls-16" d="M2252.19,2556.79c-58.6,78.42-151.86,129.93-249.45,137.75s-198-22-273.54-84.21c-36.48-30-84-87.92-84-87.92s-100.89,13-152.06,8.52c-98.71-8.58-143.78-81.55-156.26-149.1-13-70.22,4.34-148.46,60.93-192s141.3-46.86,200.4-6.77c-71.46-64.55-83.38-184.8-26-262.13s175.94-100.75,258.42-51c17.94-117.06,125.82-213.81,244.14-219S2309,1732.78,2337,1847.84c72.68-29.13,159.84-18.84,223.74,26.43s102.52,124.08,99.14,202.31c69.26-26.77,154.1-6.43,203.7,48.84s60.67,141.8,26.59,207.77-111.06,107-184.83,98.56c8.3,109.64-69.14,219.74-175.13,249S2301.29,2655.17,2252.19,2556.79Z" transform="translate(-1242.55 -1526.51)"/><path class="cls-17" d="M2248.09,2551.2c-58.6,78.42-151.86,129.93-249.45,137.75s-198-22-273.54-84.21c-36.48-30-84-87.92-84-87.92s-100.89,13-152.06,8.52c-98.71-8.58-143.78-81.55-156.26-149.1-13-70.22,4.34-148.46,60.93-192s141.3-46.86,200.4-6.77c-71.46-64.55-83.38-184.8-26-262.13s175.94-100.75,258.42-51c17.94-117.06,125.82-213.81,244.14-219s234.19,81.87,262.23,196.93c72.68-29.13,159.84-18.84,223.74,26.43s102.52,124.08,99.14,202.31c69.26-26.77,154.1-6.43,203.7,48.84s60.67,141.8,26.59,207.77-111.06,107-184.83,98.56c8.3,109.64-69.14,219.74-175.13,249S2297.19,2649.58,2248.09,2551.2Z" transform="translate(-1242.55 -1526.51)"/><path class="cls-18" d="M2244,2545.6c-58.6,78.42-151.86,129.93-249.45,137.75s-198-22-273.54-84.21c-36.48-30-84-87.92-84-87.92s-100.89,13-152.06,8.52c-98.71-8.58-143.78-81.55-156.26-149.1-13-70.22,4.34-148.46,60.93-192s141.3-46.86,200.4-6.77c-71.46-64.55-83.38-184.8-26-262.13s175.94-100.75,258.42-51c17.94-117.06,125.82-213.81,244.14-219s234.19,81.87,262.23,196.93c72.68-29.13,159.84-18.84,223.74,26.43s102.52,124.08,99.14,202.31c69.26-26.77,154.1-6.43,203.7,48.84S2916.06,2256,2882,2322s-111.06,107-184.83,98.56c8.3,109.64-69.14,219.74-175.13,249S2293.09,2644,2244,2545.6Z" transform="translate(-1242.55 -1526.51)"/><path class="cls-19" d="M2239.88,2540c-58.6,78.42-151.86,129.93-249.45,137.75s-198-22-273.54-84.21c-36.48-30-84-87.92-84-87.92s-100.89,13-152.06,8.52c-98.71-8.58-143.78-81.55-156.26-149.1-13-70.22,4.34-148.46,60.93-192s141.3-46.86,200.4-6.77c-71.46-64.55-83.38-184.8-26-262.13s175.94-100.75,258.42-51c17.94-117.06,125.82-213.81,244.14-219s234.19,81.87,262.23,196.93c72.68-29.13,159.84-18.84,223.74,26.43s102.52,124.08,99.14,202.31c69.26-26.77,154.1-6.43,203.7,48.84s60.67,141.8,26.59,207.77-111.06,107-184.83,98.56c8.3,109.64-69.14,219.74-175.13,249S2289,2638.39,2239.88,2540Z" transform="translate(-1242.55 -1526.51)"/><path class="cls-20" d="M2235.78,2534.42c-58.6,78.42-151.86,129.93-249.45,137.75s-198-22-273.54-84.21c-36.48-30-84-87.92-84-87.92s-100.89,13-152.06,8.52C1378,2500,1333,2427,1320.47,2359.45c-13-70.22,4.34-148.46,60.93-192s141.3-46.86,200.4-6.77c-71.46-64.55-83.38-184.8-26-262.13s175.94-100.75,258.42-51c17.94-117.06,125.82-213.81,244.14-219s234.19,81.87,262.23,196.93c72.68-29.13,159.84-18.84,223.74,26.43s102.52,124.08,99.14,202.31c69.26-26.77,154.1-6.43,203.7,48.84s60.67,141.8,26.59,207.77-111.06,107-184.83,98.56c8.3,109.64-69.14,219.74-175.13,249S2284.88,2632.8,2235.78,2534.42Z" transform="translate(-1242.55 -1526.51)"/><path class="cls-21" d="M2231.68,2528.82c-58.6,78.42-151.86,129.93-249.45,137.75s-198-22-273.54-84.21c-36.48-30-84-87.92-84-87.92s-100.89,13-152.06,8.52c-98.71-8.58-143.78-81.55-156.26-149.1-13-70.22,4.34-148.46,60.93-192s141.3-46.86,200.4-6.77c-71.46-64.55-83.38-184.8-26-262.13s175.94-100.75,258.42-51c17.94-117.06,125.82-213.81,244.14-219s234.19,81.87,262.23,196.93c72.68-29.13,159.84-18.84,223.74,26.43s102.52,124.08,99.14,202.31c69.26-26.77,154.1-6.43,203.7,48.84s60.67,141.8,26.59,207.77-111.06,107-184.83,98.56c8.3,109.64-69.14,219.74-175.13,249S2280.78,2627.2,2231.68,2528.82Z" transform="translate(-1242.55 -1526.51)"/><path class="cls-22" d="M2227.58,2523.23c-58.6,78.42-151.86,129.93-249.45,137.75s-198-22-273.54-84.21c-36.48-30-84-87.92-84-87.92s-100.89,13-152.06,8.52c-98.71-8.58-143.78-81.55-156.26-149.1-13-70.22,4.34-148.46,60.93-192s141.3-46.86,200.4-6.77c-71.46-64.55-83.38-184.8-26-262.13s175.94-100.75,258.42-51c17.94-117.06,125.82-213.81,244.14-219s234.19,81.87,262.23,196.93c72.68-29.13,159.84-18.84,223.74,26.43s102.52,124.08,99.14,202.31c69.26-26.77,154.1-6.43,203.7,48.84s60.67,141.8,26.59,207.77-111.06,107-184.83,98.56c8.3,109.64-69.14,219.74-175.13,249S2276.68,2621.61,2227.58,2523.23Z" transform="translate(-1242.55 -1526.51)"/><path class="cls-23" d="M2223.48,2517.63c-58.6,78.42-151.86,129.93-249.45,137.75s-198-22-273.54-84.21c-36.48-30-84-87.92-84-87.92s-100.89,13-152.06,8.52c-98.71-8.58-143.78-81.55-156.26-149.1-13-70.22,4.34-148.46,60.93-192s141.3-46.86,200.4-6.77c-71.46-64.55-83.38-184.8-26-262.13s175.94-100.75,258.42-51c17.94-117.06,125.82-213.81,244.14-219s234.19,81.87,262.23,196.93c72.68-29.13,159.84-18.84,223.74,26.43s102.52,124.08,99.14,202.31c69.26-26.77,154.1-6.43,203.7,48.84s60.67,141.8,26.59,207.77-111.06,107-184.83,98.56c8.3,109.64-69.14,219.74-175.13,249S2272.57,2616,2223.48,2517.63Z" transform="translate(-1242.55 -1526.51)"/><path class="cls-24" d="M2219.37,2512c-58.6,78.42-151.86,129.93-249.45,137.75s-198-22-273.54-84.21c-36.48-30-84-87.92-84-87.92s-100.89,13-152.06,8.52c-98.71-8.58-143.78-81.55-156.26-149.1-13-70.22,4.34-148.46,60.93-192s141.3-46.86,200.4-6.77c-71.46-64.55-83.38-184.8-26-262.13s175.94-100.75,258.42-51c17.94-117.06,125.82-213.81,244.14-219s234.19,81.87,262.23,196.93c72.68-29.13,159.84-18.84,223.74,26.43s102.52,124.08,99.14,202.31c69.26-26.77,154.1-6.43,203.7,48.84s60.67,141.8,26.59,207.77-111.06,107-184.83,98.56c8.3,109.64-69.14,219.74-175.13,249S2268.47,2610.42,2219.37,2512Z" transform="translate(-1242.55 -1526.51)"/><path class="cls-25" d="M2215.27,2506.45c-58.6,78.42-151.86,129.93-249.45,137.75s-198-22-273.54-84.21c-36.48-30-84-87.92-84-87.92s-100.89,13-152.06,8.52c-98.71-8.58-143.78-81.55-156.26-149.1-13-70.22,4.34-148.46,60.93-192s141.3-46.86,200.4-6.77c-71.46-64.55-83.38-184.8-26-262.13s175.94-100.75,258.42-51c17.94-117.06,125.82-213.81,244.14-219s234.19,81.87,262.23,196.93c72.68-29.13,159.84-18.84,223.74,26.43S2626.35,1948,2623,2026.23c69.26-26.77,154.1-6.43,203.7,48.84s60.67,141.8,26.59,207.77-111.06,107-184.83,98.56c8.3,109.64-69.14,219.74-175.13,249S2264.37,2604.83,2215.27,2506.45Z" transform="translate(-1242.55 -1526.51)"/><path class="cls-26" d="M2211.17,2500.85c-58.6,78.42-151.86,129.93-249.45,137.75s-198-22-273.54-84.21c-36.48-30-84-87.92-84-87.92s-100.89,13-152.06,8.52c-98.71-8.58-143.78-81.55-156.26-149.1-13-70.22,4.34-148.46,60.93-192s141.3-46.86,200.4-6.77c-71.46-64.55-83.38-184.8-26-262.13s175.94-100.75,258.42-51c17.94-117.06,125.82-213.81,244.14-219s234.19,81.87,262.23,196.93c72.68-29.13,159.84-18.84,223.74,26.43s102.52,124.08,99.14,202.31c69.26-26.77,154.1-6.43,203.7,48.84s60.67,141.8,26.59,207.77-111.06,107-184.83,98.56c8.3,109.64-69.14,219.74-175.13,249S2260.27,2599.23,2211.17,2500.85Z" transform="translate(-1242.55 -1526.51)"/><path class="cls-27" d="M2207.07,2495.26c-58.6,78.42-151.86,129.93-249.45,137.75s-198-22-273.54-84.21c-36.48-30-84-87.92-84-87.92s-100.89,13-152.06,8.52c-98.71-8.58-143.78-81.55-156.26-149.1-13-70.22,4.34-148.46,60.93-192s141.3-46.86,200.4-6.77c-71.46-64.55-83.38-184.8-26-262.13s175.94-100.75,258.42-51c17.94-117.06,125.82-213.81,244.14-219s234.19,81.87,262.23,196.93c72.68-29.13,159.84-18.84,223.74,26.43s102.52,124.08,99.14,202.31c69.26-26.77,154.1-6.43,203.7,48.84s60.67,141.8,26.59,207.77-111.06,107-184.83,98.56c8.3,109.64-69.14,219.74-175.13,249S2256.17,2593.64,2207.07,2495.26Z" transform="translate(-1242.55 -1526.51)"/><path class="cls-28" d="M2203,2489.66c-58.6,78.42-151.86,129.93-249.45,137.75s-198-22-273.54-84.21c-36.48-30-84-87.92-84-87.92s-100.89,13-152.06,8.52c-98.71-8.58-143.78-81.55-156.26-149.1-13-70.22,4.34-148.46,60.93-192s141.3-46.86,200.4-6.77c-71.46-64.55-83.38-184.8-26-262.13s175.94-100.75,258.42-51c17.94-117.06,125.82-213.81,244.14-219s234.19,81.87,262.23,196.93c72.68-29.13,159.84-18.84,223.74,26.43s102.52,124.08,99.14,202.31c69.26-26.77,154.1-6.43,203.7,48.84s60.67,141.8,26.59,207.77-111.06,107-184.83,98.56c8.3,109.64-69.14,219.74-175.13,249S2252.06,2588,2203,2489.66Z" transform="translate(-1242.55 -1526.51)"/><path class="cls-29" d="M2198.86,2484.07c-58.6,78.42-151.86,129.93-249.45,137.75s-198-22-273.54-84.21c-36.48-30-84-87.92-84-87.92s-100.89,13-152.06,8.52c-98.71-8.58-143.78-81.55-156.26-149.1-13-70.22,4.34-148.46,60.93-192s141.3-46.86,200.4-6.77c-71.46-64.55-83.38-184.8-26-262.13s175.94-100.75,258.42-51c17.94-117.06,125.82-213.81,244.14-219s234.19,81.87,262.23,196.93c72.68-29.13,159.84-18.84,223.74,26.43s102.52,124.08,99.14,202.31c69.26-26.77,154.1-6.43,203.7,48.84s60.67,141.8,26.59,207.77S2725.8,2367.49,2652,2359c8.3,109.64-69.14,219.74-175.13,249S2248,2582.45,2198.86,2484.07Z" transform="translate(-1242.55 -1526.51)"/><path class="cls-30" d="M2194.76,2478.48c-58.6,78.42-151.86,129.93-249.45,137.75s-198-22-273.54-84.21c-36.48-30-84-87.92-84-87.92s-100.89,13-152.06,8.52c-98.71-8.58-143.78-81.55-156.26-149.1-13-70.22,4.34-148.46,60.93-192s141.3-46.86,200.4-6.77c-71.46-64.55-83.38-184.8-26-262.13s175.94-100.75,258.42-51c17.94-117.06,125.82-213.81,244.14-219s234.19,81.87,262.23,196.93c72.68-29.13,159.84-18.84,223.74,26.43s102.52,124.08,99.14,202.31c69.26-26.77,154.1-6.43,203.7,48.84s60.67,141.8,26.59,207.77-111.06,107-184.83,98.56c8.3,109.64-69.14,219.74-175.13,249S2243.86,2576.86,2194.76,2478.48Z" transform="translate(-1242.55 -1526.51)"/><path class="cls-31" d="M2190.66,2472.88c-58.6,78.42-151.86,129.93-249.45,137.75s-198-22-273.54-84.21c-36.48-30-84-87.92-84-87.92s-100.89,13-152.06,8.52c-98.71-8.58-143.78-81.55-156.26-149.1-13-70.22,4.34-148.46,60.93-192s141.3-46.86,200.4-6.77c-71.46-64.55-83.38-184.8-26-262.13s175.94-100.75,258.42-51c17.94-117.06,125.82-213.81,244.14-219s234.19,81.87,262.23,196.93c72.68-29.13,159.84-18.84,223.74,26.43s102.52,124.08,99.14,202.31c69.26-26.77,154.1-6.43,203.7,48.84s60.67,141.8,26.59,207.77-111.06,107-184.83,98.56c8.3,109.64-69.14,219.74-175.13,249S2239.76,2571.26,2190.66,2472.88Z" transform="translate(-1242.55 -1526.51)"/><path class="cls-32" d="M2186.56,2467.29c-58.6,78.42-151.86,129.93-249.45,137.75s-198-22-273.54-84.21c-36.48-30-84-87.92-84-87.92s-100.89,13-152.06,8.52c-98.71-8.58-143.78-81.55-156.26-149.1-13-70.22,4.34-148.46,60.93-192s141.3-46.86,200.4-6.77c-71.46-64.55-83.38-184.8-26-262.13s175.94-100.75,258.42-51c17.94-117.06,125.82-213.81,244.14-219s234.19,81.87,262.23,196.93c72.68-29.13,159.84-18.84,223.74,26.43s102.52,124.08,99.14,202.31c69.26-26.77,154.1-6.43,203.7,48.84s60.67,141.8,26.59,207.77-111.06,107-184.83,98.56c8.3,109.64-69.14,219.74-175.13,249S2235.65,2565.67,2186.56,2467.29Z" transform="translate(-1242.55 -1526.51)"/><path class="cls-33" d="M2182.45,2461.69c-58.6,78.42-151.86,129.93-249.45,137.75s-198-22-273.54-84.21c-36.48-30-84-87.92-84-87.92s-100.89,13-152.06,8.52c-98.71-8.58-143.78-81.55-156.26-149.1-13-70.22,4.34-148.46,60.93-192s141.3-46.86,200.4-6.77c-71.46-64.55-83.38-184.8-26-262.13s175.94-100.75,258.42-51c17.94-117.06,125.82-213.81,244.14-219s234.19,81.87,262.23,196.93c72.68-29.13,159.84-18.84,223.74,26.43s102.52,124.08,99.14,202.31c69.26-26.77,154.1-6.43,203.7,48.84s60.67,141.8,26.59,207.77-111.06,107-184.83,98.56c8.3,109.64-69.14,219.74-175.13,249S2231.55,2560.08,2182.45,2461.69Z" transform="translate(-1242.55 -1526.51)"/><path class="cls-34" d="M2178.35,2456.1c-58.6,78.42-151.86,129.93-249.45,137.75s-198-22-273.54-84.21c-36.48-30-84-87.92-84-87.92s-100.89,13-152.06,8.52c-98.71-8.58-143.78-81.55-156.26-149.1-13-70.22,4.34-148.46,60.93-192s141.3-46.86,200.4-6.77c-71.46-64.55-83.38-184.8-26-262.13s175.94-100.75,258.42-51c17.94-117.06,125.82-213.81,244.14-219s234.19,81.87,262.23,196.93c72.68-29.13,159.84-18.84,223.74,26.43s102.52,124.08,99.14,202.31c69.26-26.77,154.1-6.43,203.7,48.84s60.67,141.8,26.59,207.77-111.06,107-184.83,98.56c8.3,109.64-69.14,219.74-175.13,249S2227.45,2554.48,2178.35,2456.1Z" transform="translate(-1242.55 -1526.51)"/><path class="cls-35" d="M2174.25,2450.51c-58.6,78.42-151.86,129.93-249.45,137.75s-198-22-273.54-84.21c-36.48-30-84-87.92-84-87.92s-100.89,13-152.06,8.52c-98.71-8.58-143.78-81.55-156.26-149.1-13-70.22,4.34-148.46,60.93-192s141.3-46.86,200.4-6.77c-71.46-64.55-83.38-184.8-26-262.13s175.94-100.75,258.42-51c17.94-117.06,125.82-213.81,244.14-219s234.19,81.87,262.23,196.93c72.68-29.13,159.84-18.84,223.74,26.43s102.52,124.08,99.14,202.31c69.26-26.77,154.1-6.43,203.7,48.84s60.67,141.8,26.59,207.77-111.06,107-184.83,98.56c8.3,109.64-69.14,219.74-175.13,249S2223.35,2548.89,2174.25,2450.51Z" transform="translate(-1242.55 -1526.51)"/><path class="cls-36" d="M2170.15,2444.91c-58.6,78.42-151.86,129.93-249.45,137.75s-198-22-273.54-84.21c-36.48-30-84-87.92-84-87.92s-100.89,13-152.06,8.52c-98.71-8.58-143.78-81.55-156.26-149.1-13-70.22,4.34-148.46,60.93-192s141.3-46.86,200.4-6.77c-71.46-64.55-83.38-184.8-26-262.13s175.94-100.75,258.42-51c17.94-117.06,125.82-213.81,244.14-219S2226.92,1620.9,2255,1736c72.68-29.13,159.84-18.84,223.74,26.43s102.52,124.08,99.14,202.31c69.26-26.77,154.1-6.43,203.7,48.84s60.67,141.8,26.59,207.77-111.06,107-184.83,98.56c8.3,109.64-69.14,219.74-175.13,249S2219.25,2543.29,2170.15,2444.91Z" transform="translate(-1242.55 -1526.51)"/></g><path class="cls-37" d="M2161.94,2432.6c-58.6,78.42-151.86,129.93-249.45,137.75s-198-22-273.54-84.21c-36.48-30-84-87.92-84-87.92s-100.89,13-152.06,8.52c-98.71-8.58-143.78-81.55-156.26-149.1-13-70.22,4.34-148.46,60.93-192s141.3-46.86,200.4-6.77c-71.46-64.55-83.38-184.8-26-262.13s175.94-100.75,258.42-51c17.94-117.06,125.82-213.81,244.14-219s234.19,81.87,262.23,196.93c72.68-29.13,159.84-18.84,223.74,26.43s102.52,124.08,99.14,202.31c69.26-26.77,154.1-6.43,203.7,48.84S2834,2143,2799.94,2209s-111.06,107-184.83,98.56c8.3,109.64-69.14,219.74-175.13,249S2211,2531,2161.94,2432.6Z" transform="translate(-1242.55 -1526.51)"/><path class="cls-3" d="M2582,1972.9c69.26-26.77,154.1-6.43,203.7,48.84a170.28,170.28,0,0,1,12.88,16.26,174.34,174.34,0,0,0-25.19-36.77c-46.77-52.12-124.88-73.16-191.72-52.93A223,223,0,0,1,2582,1972.9Z" transform="translate(-1242.55 -1526.51)"/><path class="cls-3" d="M2259.07,1744.16c72.68-29.13,159.84-18.84,223.74,26.43a232.18,232.18,0,0,1,58.53,60.57c-17.09-32-41.24-60.12-70.83-81.08-62.29-44.13-146.64-54.91-218.19-28.44A232.12,232.12,0,0,1,2259.07,1744.16Z" transform="translate(-1242.55 -1526.51)"/><path class="cls-3" d="M1258.94,2278.16c-13-70.22,4.34-148.46,60.93-192s141.3-46.86,200.4-6.77a176.73,176.73,0,0,1-25.16-28.31c-58-31.6-134.94-25.92-187.54,14.57-56.59,43.55-73.91,121.79-60.93,192,5,27.18,15.33,55.23,32.28,79.62A214.16,214.16,0,0,1,1258.94,2278.16Z" transform="translate(-1242.55 -1526.51)"/><path class="cls-3" d="M1494.28,1817.24c57.39-77.33,175.94-100.75,258.42-51,17.94-117.06,125.82-213.81,244.14-219,90-3.91,178.49,45.49,228.09,120-46.13-85.76-142.39-144.75-240.39-140.49-118.32,5.15-226.19,101.9-244.14,219-82.48-49.7-201-26.28-258.42,51-49.14,66.21-47.42,163.86-1.07,231.09C1447,1962.32,1449.94,1877,1494.28,1817.24Z" transform="translate(-1242.55 -1526.51)"/><path class="cls-38" d="M1627,2013.69c0-97.47,75.6-164,173.54-164s173.54,66.56,173.54,164-75.6,164-173.54,164S1627,2111.16,1627,2013.69Zm249.61,0c0-44.22-30-79.4-76.07-79.4s-76.07,35.18-76.07,79.4,30,79.4,76.07,79.4S1876.57,2057.91,1876.57,2013.69Z" transform="translate(-1242.55 -1526.51)"/><path class="cls-38" d="M2193.21,2172l-71.32-111.73-17.59,23.77v88h-96V1854.89h96v118.86l83.2-118.86h117.44l-119.81,147.39,125,169.74h-117Z" transform="translate(-1242.55 -1526.51)"/><path class="cls-38" d="M2330.14,2054.1l-12.84-199.21H2419l-11.89,199.21h-77Zm-11.89,72.74c0-27.58,22.82-50.87,50.4-50.87s50.4,23.3,50.4,50.87c0,27.1-22.82,50.4-50.4,50.4S2318.25,2153.95,2318.25,2126.85Z" transform="translate(-1242.55 -1526.51)"/><path d="M1770.4,2315.79l-27.08-97-27.08,97h-10.83l-32.33-112.91h10.83l27.25,99.37,27.76-99.37h8.8l27.59,99.37,27.25-99.37h10.83l-32.16,112.91H1770.4Z" transform="translate(-1242.55 -1526.51)"/><path d="M1830.66,2315.79V2202.88h71.61v8.8h-62v41.81h60.77v8.8h-60.77V2307h62v8.8h-71.61Z" transform="translate(-1242.55 -1526.51)"/><path d="M2007.9,2315.79L1996.72,2288H1937l-11.17,27.76h-11.17l46.21-112.91h12l46.21,112.91H2007.9Zm-41.14-102.58-26.58,66h53.32Z" transform="translate(-1242.55 -1526.51)"/><path d="M2052.76,2315.79V2211.68h-36.9v-8.8h83.62v8.8h-36.9v104.11h-9.82Z" transform="translate(-1242.55 -1526.51)"/><path d="M2200.71,2315.79v-53.66H2129.1v53.66h-9.65V2202.88h9.65v50.45h71.61v-50.45h9.82v112.91h-9.82Z" transform="translate(-1242.55 -1526.51)"/><path d="M2238.46,2315.79V2202.88h71.61v8.8h-62v41.81h60.77v8.8h-60.77V2307h62v8.8h-71.61Z" transform="translate(-1242.55 -1526.51)"/><path d="M2400.12,2315.79l-31.66-46.72h-24.88v46.72h-9.65V2202.88h42.15c19.47,0,34.36,12.36,34.36,33,0,20.48-14.56,31.82-31.32,32.5l32.67,47.4h-11.68Zm0.17-79.9c0-14.22-10.16-24.21-25.05-24.21h-31.66v48.58h31.66C2390.13,2260.26,2400.29,2250.11,2400.29,2235.89Z" transform="translate(-1242.55 -1526.51)"/></g></g></svg>